<svg width="890" height="319" viewBox="0 0 890 319" fill="none" xmlns="http://www.w3.org/2000/svg">
<path d="M16.7138 226V56.5454H81.5831C93.8288 56.5454 104.006 58.4761 112.115 62.3373C120.279 66.1435 126.374 71.3562 130.401 77.9755C134.482 84.5948 136.523 92.0967 136.523 100.481C136.523 107.376 135.2 113.279 132.552 118.188C129.904 123.042 126.346 126.986 121.878 130.02C117.41 133.054 112.418 135.233 106.902 136.556V138.211C112.915 138.542 118.679 140.39 124.195 143.755C129.766 147.065 134.317 151.753 137.847 157.821C141.378 163.889 143.143 171.225 143.143 179.83C143.143 188.601 141.019 196.489 136.772 203.494C132.524 210.445 126.126 215.933 117.576 219.96C109.026 223.987 98.2693 226 85.3065 226H16.7138ZM47.4109 200.35H80.4247C91.5672 200.35 99.5932 198.226 104.502 193.979C109.467 189.676 111.949 184.16 111.949 177.431C111.949 172.411 110.708 167.888 108.226 163.861C105.744 159.779 102.213 156.58 97.6349 154.263C93.0566 151.891 87.5956 150.705 81.2521 150.705H47.4109V200.35ZM47.4109 128.613H77.777C83.0724 128.613 87.8439 127.648 92.0913 125.717C96.3387 123.732 99.6759 120.946 102.103 117.36C104.585 113.72 105.826 109.417 105.826 104.453C105.826 97.8886 103.51 92.4828 98.8761 88.2354C94.2977 83.988 87.4853 81.8643 78.4389 81.8643H47.4109V128.613ZM220.128 228.482C207.386 228.482 196.381 225.835 187.114 220.539C177.902 215.188 170.814 207.631 165.849 197.868C160.885 188.049 158.403 176.493 158.403 163.199C158.403 150.126 160.885 138.653 165.849 128.779C170.869 118.85 177.875 111.127 186.866 105.611C195.857 100.04 206.42 97.2543 218.556 97.2543C226.389 97.2543 233.78 98.523 240.731 101.06C247.736 103.543 253.914 107.404 259.265 112.644C264.67 117.884 268.918 124.559 272.007 132.668C275.096 140.721 276.64 150.319 276.64 161.462V170.646H172.469V150.457H247.929C247.874 144.72 246.633 139.618 244.206 135.15C241.779 130.627 238.386 127.069 234.028 124.476C229.726 121.884 224.706 120.587 218.97 120.587C212.847 120.587 207.468 122.077 202.835 125.055C198.201 127.979 194.588 131.84 191.996 136.639C189.458 141.383 188.162 146.596 188.107 152.277V169.901C188.107 177.293 189.458 183.636 192.161 188.932C194.864 194.172 198.643 198.199 203.497 201.012C208.351 203.77 214.033 205.149 220.542 205.149C224.899 205.149 228.843 204.542 232.374 203.329C235.904 202.06 238.965 200.212 241.558 197.785C244.151 195.358 246.109 192.352 247.433 188.766L275.399 191.911C273.634 199.302 270.269 205.756 265.305 211.272C260.395 216.733 254.107 220.98 246.44 224.014C238.772 226.993 230.002 228.482 220.128 228.482ZM327.272 56.5454V226H297.32V56.5454H327.272ZM389.985 228.565C381.931 228.565 374.677 227.131 368.224 224.262C361.825 221.339 356.75 217.036 352.999 211.355C349.303 205.673 347.455 198.668 347.455 190.338C347.455 183.167 348.779 177.238 351.427 172.549C354.075 167.86 357.688 164.109 362.266 161.296C366.845 158.483 372.002 156.359 377.739 154.925C383.531 153.436 389.516 152.36 395.694 151.698C403.14 150.926 409.181 150.236 413.814 149.63C418.448 148.968 421.812 147.975 423.909 146.651C426.06 145.272 427.135 143.148 427.135 140.28V139.783C427.135 133.55 425.288 128.724 421.592 125.304C417.896 121.884 412.573 120.174 405.623 120.174C398.286 120.174 392.467 121.773 388.164 124.973C383.917 128.172 381.048 131.951 379.559 136.308L351.593 132.337C353.799 124.614 357.44 118.16 362.514 112.975C367.589 107.735 373.795 103.818 381.131 101.226C388.468 98.5781 396.576 97.2543 405.457 97.2543C411.58 97.2543 417.675 97.9714 423.743 99.4055C429.811 100.84 435.354 103.212 440.374 106.521C445.394 109.776 449.421 114.216 452.454 119.843C455.543 125.469 457.088 132.502 457.088 140.942V226H428.294V208.542H427.301C425.481 212.072 422.916 215.382 419.606 218.471C416.352 221.504 412.242 223.959 407.278 225.835C402.368 227.655 396.604 228.565 389.985 228.565ZM397.762 206.556C403.775 206.556 408.988 205.37 413.4 202.998C417.813 200.571 421.206 197.371 423.578 193.4C426.005 189.428 427.218 185.098 427.218 180.409V165.433C426.28 166.205 424.681 166.923 422.419 167.585C420.213 168.246 417.731 168.826 414.972 169.322C412.214 169.819 409.484 170.26 406.781 170.646C404.078 171.032 401.734 171.363 399.748 171.639C395.28 172.246 391.281 173.239 387.751 174.618C384.22 175.997 381.435 177.927 379.394 180.409C377.353 182.837 376.332 185.981 376.332 189.842C376.332 195.358 378.346 199.523 382.372 202.336C386.399 205.149 391.529 206.556 397.762 206.556ZM482.546 226V98.9091H511.588V120.091H512.912C515.229 112.754 519.2 107.1 524.827 103.129C530.508 99.1022 536.99 97.0888 544.271 97.0888C545.926 97.0888 547.774 97.1715 549.815 97.337C551.911 97.4473 553.648 97.6404 555.027 97.9162V125.469C553.759 125.028 551.745 124.642 548.987 124.311C546.284 123.925 543.664 123.732 541.127 123.732C535.666 123.732 530.757 124.917 526.399 127.289C522.096 129.606 518.704 132.833 516.222 136.97C513.739 141.107 512.498 145.879 512.498 151.284V226H482.546ZM620.47 228.482C608.059 228.482 597.302 225.752 588.201 220.291C579.099 214.83 572.039 207.19 567.019 197.371C562.055 187.553 559.572 176.079 559.572 162.951C559.572 149.823 562.055 138.322 567.019 128.448C572.039 118.574 579.099 110.907 588.201 105.446C597.302 99.9847 608.059 97.2543 620.47 97.2543C632.881 97.2543 643.638 99.9847 652.739 105.446C661.841 110.907 668.874 118.574 673.838 128.448C678.858 138.322 681.368 149.823 681.368 162.951C681.368 176.079 678.858 187.553 673.838 197.371C668.874 207.19 661.841 214.83 652.739 220.291C643.638 225.752 632.881 228.482 620.47 228.482ZM620.636 204.487C627.365 204.487 632.992 202.639 637.515 198.944C642.038 195.193 645.403 190.173 647.609 183.885C649.871 177.596 651.002 170.591 651.002 162.868C651.002 155.091 649.871 148.058 647.609 141.769C645.403 135.426 642.038 130.378 637.515 126.627C632.992 122.877 627.365 121.001 620.636 121.001C613.74 121.001 608.004 122.877 603.425 126.627C598.902 130.378 595.51 135.426 593.248 141.769C591.042 148.058 589.938 155.091 589.938 162.868C589.938 170.591 591.042 177.596 593.248 183.885C595.51 190.173 598.902 195.193 603.425 198.944C608.004 202.639 613.74 204.487 620.636 204.487ZM702.13 226V98.9091H732.083V226H702.13ZM717.189 80.8715C712.445 80.8715 708.363 79.2994 704.943 76.1552C701.523 72.9558 699.813 69.1221 699.813 64.6541C699.813 60.1309 701.523 56.2972 704.943 53.153C708.363 49.9537 712.445 48.354 717.189 48.354C721.988 48.354 726.07 49.9537 729.435 53.153C732.855 56.2972 734.565 60.1309 734.565 64.6541C734.565 69.1221 732.855 72.9558 729.435 76.1552C726.07 79.2994 721.988 80.8715 717.189 80.8715ZM805.386 228.234C795.402 228.234 786.465 225.669 778.577 220.539C770.689 215.409 764.456 207.962 759.878 198.199C755.3 188.435 753.01 176.576 753.01 162.62C753.01 148.499 755.327 136.584 759.961 126.876C764.649 117.112 770.965 109.748 778.908 104.784C786.852 99.7641 795.705 97.2543 805.468 97.2543C812.915 97.2543 819.038 98.523 823.837 101.06C828.636 103.543 832.442 106.549 835.255 110.079C838.069 113.554 840.247 116.836 841.792 119.925H843.033V56.5454H873.068V226H843.612V205.977H841.792C840.247 209.066 838.013 212.348 835.09 215.823C832.166 219.243 828.305 222.166 823.506 224.593C818.707 227.02 812.667 228.234 805.386 228.234ZM813.743 203.66C820.086 203.66 825.492 201.95 829.96 198.53C834.428 195.055 837.82 190.228 840.137 184.05C842.454 177.872 843.612 170.674 843.612 162.455C843.612 154.236 842.454 147.092 840.137 141.024C837.876 134.957 834.511 130.241 830.043 126.876C825.63 123.511 820.196 121.828 813.743 121.828C807.068 121.828 801.497 123.566 797.029 127.041C792.561 130.516 789.196 135.315 786.934 141.438C784.673 147.561 783.542 154.567 783.542 162.455C783.542 170.398 784.673 177.486 786.934 183.719C789.251 189.897 792.643 194.779 797.112 198.364C801.635 201.895 807.178 203.66 813.743 203.66Z" fill="black"/>
<rect x="16" y="289" width="143" height="30" fill="#DB001C"/>
<rect x="159" y="289" width="147" height="30" fill="#79C11D"/>
<rect x="306" y="289" width="148" height="30" fill="#D1D1D1"/>
</svg>
